<mxfile host="app.diagrams.net" modified="2024-02-08T09:34:02.441Z" agent="Mozilla/5.0 (X11; Ubuntu; Linux x86_64; rv:122.0) Gecko/20100101 Firefox/122.0" etag="rHKdLJM-IWPlgoejSZ1S" version="21.6.6" type="device">
  <diagram name="Page-1" id="EaTV2njRHDEyTtE49ZJq">
    <mxGraphModel dx="1012" dy="562" grid="1" gridSize="10" guides="1" tooltips="1" connect="1" arrows="1" fold="1" page="1" pageScale="1" pageWidth="850" pageHeight="1100" math="0" shadow="0">
      <root>
        <mxCell id="0" />
        <mxCell id="1" parent="0" />
        <mxCell id="Fxq5-4peBgpnYAJPO7DK-8" value="" style="rounded=0;whiteSpace=wrap;html=1;fillColor=#f5f5f5;fontColor=#333333;strokeColor=#666666;dashed=1;" vertex="1" parent="1">
          <mxGeometry x="110" y="110" width="330" height="250" as="geometry" />
        </mxCell>
        <mxCell id="Fxq5-4peBgpnYAJPO7DK-3" value="" style="edgeStyle=orthogonalEdgeStyle;rounded=0;orthogonalLoop=1;jettySize=auto;html=1;startArrow=classic;startFill=1;" edge="1" parent="1" source="Fxq5-4peBgpnYAJPO7DK-1" target="Fxq5-4peBgpnYAJPO7DK-2">
          <mxGeometry relative="1" as="geometry" />
        </mxCell>
        <mxCell id="Fxq5-4peBgpnYAJPO7DK-1" value="&lt;div&gt;QUICHE&lt;/div&gt;&lt;i&gt;rust&lt;/i&gt;" style="rounded=0;whiteSpace=wrap;html=1;" vertex="1" parent="1">
          <mxGeometry x="140" y="130" width="120" height="60" as="geometry" />
        </mxCell>
        <mxCell id="Fxq5-4peBgpnYAJPO7DK-2" value="&lt;div&gt;ICE&lt;/div&gt;&lt;div&gt;&lt;i&gt;rust&lt;/i&gt;&lt;br&gt;&lt;/div&gt;" style="rounded=0;whiteSpace=wrap;html=1;" vertex="1" parent="1">
          <mxGeometry x="140" y="290" width="120" height="60" as="geometry" />
        </mxCell>
        <mxCell id="Fxq5-4peBgpnYAJPO7DK-5" style="edgeStyle=orthogonalEdgeStyle;rounded=0;orthogonalLoop=1;jettySize=auto;html=1;entryX=1;entryY=0.5;entryDx=0;entryDy=0;" edge="1" parent="1" source="Fxq5-4peBgpnYAJPO7DK-4" target="Fxq5-4peBgpnYAJPO7DK-1">
          <mxGeometry relative="1" as="geometry">
            <mxPoint x="200" y="240" as="targetPoint" />
            <Array as="points">
              <mxPoint x="350" y="160" />
            </Array>
          </mxGeometry>
        </mxCell>
        <mxCell id="Fxq5-4peBgpnYAJPO7DK-6" style="edgeStyle=orthogonalEdgeStyle;rounded=0;orthogonalLoop=1;jettySize=auto;html=1;entryX=1;entryY=0.5;entryDx=0;entryDy=0;" edge="1" parent="1" source="Fxq5-4peBgpnYAJPO7DK-4" target="Fxq5-4peBgpnYAJPO7DK-2">
          <mxGeometry relative="1" as="geometry">
            <Array as="points">
              <mxPoint x="350" y="320" />
            </Array>
          </mxGeometry>
        </mxCell>
        <mxCell id="Fxq5-4peBgpnYAJPO7DK-7" style="edgeStyle=orthogonalEdgeStyle;rounded=0;orthogonalLoop=1;jettySize=auto;html=1;startArrow=classic;startFill=1;dashed=1;endArrow=classic;endFill=0;" edge="1" parent="1" source="Fxq5-4peBgpnYAJPO7DK-4">
          <mxGeometry relative="1" as="geometry">
            <mxPoint x="520" y="240" as="targetPoint" />
          </mxGeometry>
        </mxCell>
        <mxCell id="Fxq5-4peBgpnYAJPO7DK-4" value="&lt;div&gt;Multiplexer&lt;/div&gt;&lt;div&gt;&lt;i&gt;rust&lt;/i&gt;&lt;br&gt;&lt;/div&gt;" style="rounded=0;whiteSpace=wrap;html=1;" vertex="1" parent="1">
          <mxGeometry x="290" y="210" width="120" height="60" as="geometry" />
        </mxCell>
        <mxCell id="Fxq5-4peBgpnYAJPO7DK-9" value="One sided stack" style="text;html=1;align=center;verticalAlign=middle;resizable=0;points=[];autosize=1;strokeColor=none;fillColor=none;" vertex="1" parent="1">
          <mxGeometry x="315" y="120" width="110" height="30" as="geometry" />
        </mxCell>
      </root>
    </mxGraphModel>
  </diagram>
</mxfile>
